
        <svg xmlns="http://www.w3.org/2000/svg" xmlns:xlink="http://www.w3.org/1999/xlink" version="1.1" width="150" 
        height="75" viewBox="0 0 3199 1311">
			
			<g transform="scale(9.966777408637874)">
				<defs id="SvgjsDefs2300"><linearGradient id="SvgjsLinearGradient2307"><stop id="SvgjsStop2308" stop-color="#8f5e25" offset="0"></stop><stop id="SvgjsStop2309" stop-color="#fbf4a1" offset="0.5"></stop><stop id="SvgjsStop2310" stop-color="#8f5e25" offset="1"></stop></linearGradient><linearGradient id="SvgjsLinearGradient2311"><stop id="SvgjsStop2312" stop-color="#8f5e25" offset="0"></stop><stop id="SvgjsStop2313" stop-color="#fbf4a1" offset="0.5"></stop><stop id="SvgjsStop2314" stop-color="#8f5e25" offset="1"></stop></linearGradient><linearGradient id="SvgjsLinearGradient2315"><stop id="SvgjsStop2316" stop-color="#8f5e25" offset="0"></stop><stop id="SvgjsStop2317" stop-color="#fbf4a1" offset="0.5"></stop><stop id="SvgjsStop2318" stop-color="#8f5e25" offset="1"></stop></linearGradient></defs><g id="SvgjsG2301" featureKey="symbolFeature-0" transform="matrix(1.2584715538588154,0,0,1.2584715538588154,-22.209416231177734,-7.1241969816921715)" fill="url(#SvgjsLinearGradient2307)"><g xmlns="http://www.w3.org/2000/svg"><g><g><path fill-rule="evenodd" clip-rule="evenodd" d="M50.013,94.34l-3.212-5.65c-3.533-6.276-15.461-27.395-19.184-34.215     c-2.695-5.107-5.996-13.553-5.996-20.447c0-15.619,12.771-28.367,28.365-28.367c15.628,0,28.393,12.748,28.393,28.367     c0,6.604-3.063,15.496-5.93,20.525c-4.807,8.365-19.224,34.07-19.345,34.209L50.013,94.34z M50.013,12.766L50.013,12.766     c-11.709,0-21.299,9.565-21.299,21.262c0,5.185,2.626,12.311,5.184,17.038c2.943,5.414,11.277,20.3,16.089,28.757     c4.634-8.309,12.832-22.816,16.239-28.829c2.34-4.144,4.967-11.845,4.967-16.966c0-5.715-2.219-10.957-6.209-15.021     c-4.026-4.008-9.355-6.24-14.997-6.24H50.013z"></path></g></g><path fill="url(#SvgjsLinearGradient2307)" d="M63.891,45.764v-0.019V24.743l-17.004-8.848v19.081c-2.336-1.854-5.907-1.67-8.412,0.578   c-2.759,2.487-3.163,6.538-0.902,9.05s6.329,2.535,9.089,0.05c1.554-1.399,2.36-3.293,2.366-5.132V23.825l12.653,5.946v11.377   c-2.333-1.796-5.861-1.594-8.343,0.634c-2.759,2.485-3.164,6.533-0.906,9.045c2.262,2.515,6.333,2.537,9.099,0.055   c1.539-1.394,2.351-3.281,2.36-5.112V45.764z"></path></g></g><g id="SvgjsG2302" featureKey="nameFeature-0" transform="matrix(1.1453496220133865,0,0,1.1453496220133865,93.97560035199633,9.172863577533152)" fill="url(#SvgjsLinearGradient2311)"><path d="M22.402 20.742 l0.23438 0 l0 0.15625 l-0.23438 0 l0 -0.15625 z M23.027 20.82 q1.875 0.41015625 1.875 0.703125 q0 0.078125 0.078125 0.078125 l0 -0.078125 q0.52734375 0 0.859375 1.484375 q-0.078125 0.234375 -0.15625 0.234375 l0.078125 0.15625 q-0.5078125 1.2109375 -3.515625 6.5625 q-0.05859375 0.17578125 -0.703125 1.171875 q0 0.078125 0.078125 0.078125 q-0.390625 0.72265625 -0.390625 0.859375 l-0.15625 -0.078125 l0.078125 0.15625 q-1.6796875 3.359375 -2.34375 5.15625 q-0.60546875 0.60546875 -1.25 3.28125 q-0.078125 0 -0.078125 0.078125 t0.078125 0.078125 q-0.46875 1.46484375 -0.46875 2.65625 l-0.078125 0 l0 -0.3125 l-0.078125 0 q-0.13671875 0.703125 -0.3125 0.703125 q0 -0.078125 -0.078125 -0.078125 q0 0.46875 -0.390625 0.46875 q0 -0.078125 -0.078125 -0.078125 q-0.05859375 0.234375 -0.3125 0.3125 q0 -0.15625 -0.234375 -0.15625 l-0.23438 0 q-0.234375 -0.546875 -0.625 -2.1875 q0.078125 -0.13671875 0.078125 -0.3125 l-0.15625 -0.078125 l0.078125 -0.15625 l0 -0.15625 l-0.15625 0 l0 -0.15625 q0 -0.33203125 -0.078125 -0.859375 l0.078125 -0.15625 q-0.078125 -0.13671875 -0.078125 -0.3125 l0.078125 -0.15625 l-0.078125 0 q0.15625 -0.234375 0.234375 -0.859375 q-0.078125 -0.13671875 -0.078125 -0.3125 l0.15625 0 l0 -0.078125 l-0.15625 -0.23438 l0.15625 -0.078125 q0 0.078125 0.078125 0.078125 l0.15625 -0.78125 q-0.078125 0 -0.078125 -0.078125 q0.17578125 0 0.234375 -0.3125 l-0.078125 -0.15625 l0 -0.3125 q0.234375 0 0.390625 -0.546875 q-0.078125 0 -0.078125 -0.078125 q0.1953125 -0.234375 0.3125 -0.234375 l-0.078125 -0.15625 q0.390625 -0.5078125 0.390625 -0.703125 l-0.15625 0.078125 l0 -0.078125 q0 -0.1953125 0.3125 -0.234375 l0 -0.15625 l-0.15625 0 l0 -0.078125 q0.1171875 -0.13671875 0.625 -0.9375 l-0.15625 0 q0.078125 -0.13671875 0.078125 -0.3125 l0.078125 0 l0 0.15625 l0.078125 0 q0 -0.546875 0.625 -1.40625 l0.078125 0 l-0.078125 -0.15625 q0.234375 0 0.234375 -0.546875 l0.15625 0.078125 l0.078125 -0.46875 q-0.078125 0 -0.078125 -0.078125 q0.3125 0 0.3125 -0.625 l0.15625 0.078125 l0 -0.15625 l-0.15625 0 l0 -0.15625 l0.15625 0.078125 q0 -0.1953125 0.390625 -0.703125 l0.15625 -0.3125 l-0.078125 0 l-0.078125 0.15625 l-0.15625 -0.078125 l-0.078125 0 q-0.29296875 0.13671875 -0.390625 0.46875 q0.078125 0 0.078125 0.078125 l-0.70313 0.85938 q-1.58203125 2.05078125 -3.984375 4.453125 q-0.13671875 0 -1.484375 1.171875 q-1.4453125 0.703125 -1.71875 0.703125 l-0.625 -0.3125 l-0.15625 0.078125 l-0.078125 0 q-1.640625 -1.30859375 -1.640625 -2.265625 q-0.3125 -0.546875 -0.3125 -0.78125 l0 -0.625 q0 -0.390625 0.234375 -1.25 q-0.17578125 0 -0.546875 0.546875 l-1.9531 2.0313 q-1.015625 1.07421875 -2.03125 2.421875 q-1.9140625 1.953125 -2.5 1.953125 q0 0.09765625 -0.46875 0.234375 q-1.50390625 -0.37109375 -1.875 -1.015625 q-0.78125 -1.19140625 -0.78125 -1.953125 q0 -1.25 2.109375 -6.5625 q0.46875 -0.99609375 0.625 -1.5625 q0.1171875 0 0.546875 -0.234375 l0 0.078125 l0.15625 -0.078125 q0.15625 0.01953125 0.15625 0.15625 l0.15625 -0.078125 l0.15625 0 q1.640625 0.33203125 1.640625 1.5625 l-0.46875 1.9531 q0.078125 0 0.078125 0.078125 q-0.15625 0.01953125 -0.15625 0.15625 l0.078125 0.15625 q-0.234375 0.078125 -0.234375 0.46875 l0 0.078125 l0.15625 -0.078125 q0 0.078125 0.078125 0.078125 q1.23046875 -1.40625 1.40625 -1.484375 l0 0.15625 q2.24609375 -1.9921875 2.8125 -2.734375 q1.328125 -1.0546875 4.0625 -3.671875 q0.546875 -0.3125 0.546875 -0.625 l0.15625 0.078125 l0.70313 0 l0.15625 0.078125 l0 -0.078125 q0.546875 0.13671875 0.546875 0.234375 l0.15625 -0.078125 l1.0156 0.46875 q0.33203125 0.29296875 0.625 1.09375 q0 0.9375 -1.484375 3.75 q-0.46875 1.171875 -0.625 1.171875 l0 0.15625 l0.078125 0 q0.078125 0 1.328125 -1.40625 q1.5625 -1.796875 2.34375 -2.578125 q0 0.078125 0.078125 0.078125 l0 -0.23438 l0.15625 0.078125 l0 -0.078125 q-0.078125 0 -0.078125 -0.078125 q0.21484375 0 0.703125 -0.625 q0 0.078125 0.078125 0.078125 l0.078125 -0.39063 l0.15625 0.078125 q0.390625 -0.390625 0.390625 -0.625 l0.15625 0.078125 l0.46875 -0.625 l0.15625 0.078125 l0 -0.078125 q-0.078125 0 -0.078125 -0.078125 l0.15625 -0.078125 q0 0.078125 0.078125 0.078125 q0.3515625 -0.56640625 0.703125 -0.703125 q0.3125 -0.234375 0.3125 -0.3125 q-0.078125 0 -0.078125 -0.078125 q0.5078125 -0.390625 0.78125 -0.390625 l-0.078125 -0.15625 l0 -0.078125 q0.0390625 0 0.3125 -0.078125 q0 0.078125 0.078125 0.078125 l0 -0.078125 q-0.078125 0 -0.078125 -0.078125 q0.546875 -0.15625 0.78125 -0.546875 q1.30859375 -0.9375 1.484375 -0.9375 z M35.165996875 16.562 l0.078125 0 l0.625 0.3125 q0.13671875 -0.078125 0.3125 -0.078125 l0.625 0.39063 l0.15625 -0.078125 q0.7421875 1.07421875 0.78125 1.484375 q-0.1953125 0.625 -0.703125 0.625 q-0.41015625 -0.0390625 -1.25 -0.625 q-0.2734375 0 -0.625 -1.25 q-0.05859375 0 -0.234375 -0.234375 z M32.900396875 22.969 l0.078125 0 l0 0.15625 q0.078125 0 0.078125 -0.078125 q2.1875 0.60546875 2.1875 1.796875 q0.078125 0 0.078125 0.46875 q-3.02734375 4.82421875 -4.84375 8.59375 q0 0.17578125 -0.703125 1.5625 q-0.859375 2.91015625 -0.859375 2.96875 q0.3125 0.64453125 0.390625 1.171875 q-0.1171875 0 -0.234375 0.3125 l-0.15625 -0.078125 l-0.23438 0 l0 0.15625 q-1.015625 -0.29296875 -1.015625 -0.703125 q-0.078125 0 -0.078125 0.078125 q-1.09375 -0.83984375 -1.09375 -2.265625 q-0.13671875 0 -0.15625 -0.9375 q0 -2.109375 2.65625 -7.1875 q1.69921875 -3.2421875 3.359375 -5.3125 z M42.20706875 40 q-1.2890625 -1.328125 -1.2890625 -2.67578125 l0 -0.19531 q0 -0.5078125 -0.1953125 -0.5078125 q0.01953125 -0.1171875 0.09765625 -0.1171875 q-0.17578125 -1.50390625 -0.17578125 -2.65625 q0 -0.44921875 0.01953125 -0.859375 q0.1953125 -3.8671875 4.2578125 -12.890625 q2.96875 -6.97265625 4.00390625 -9.2578125 l-0.058594 -0.25391 l0.039063 -0.50781 q0.25390625 0 0.4296875 -0.625 l0.3125 0 l0.15625 0.11719 l0 -0.11719 l0.37109 0.25391 l0.48828 -0.13672 q0 0.234375 0.859375 1.015625 q0.48828125 1.40625 0.48828125 1.9140625 l-0.039063 0.58594 q-0.078125 1.23046875 -1.796875 4.62890625 q-0.4296875 0.5078125 -0.99609375 2.01171875 q-0.05859375 0 -3.046875 6.62109375 q-0.1953125 0.13671875 -1.30859375 3.0078125 q-1.6796875 4.0234375 -1.8359375 6.26953125 l-0.019531 0.11719 q0.37109375 0 1.23046875 -0.87890625 l0.46875 0 l0 0.11719 q0 0.21484375 0.05859375 0.390625 q-0.37109375 0 -0.56640625 1.25 q0.05859375 0.234375 0.05859375 0.37109375 q-0.1171875 0 -0.4296875 0.625 l0 0.039063 q0 0.21484375 0.21484375 0.21484375 q-0.01953125 0.25390625 -0.25390625 0.25390625 l0.058594 0.25391 q-0.15625 0.0390625 -0.17578125 0.234375 l0.058594 0.25391 q-0.64453125 1.1328125 -1.484375 1.1328125 z M54.404315625 26.641 l0 0.078125 l-0.078125 0.15625 l0.078125 0 l0.23438 -0.3125 l0 -0.078125 z M51.826175625 29.844 q0 0.078125 -0.078125 0.234375 l0.078125 0 l0.078125 -0.15625 l0 -0.078125 l-0.078125 0 z M52.919915625 28.436999999999998 l-0.15625 0.23438 l0.078125 0 l0.15625 -0.23438 l-0.078125 0 z M54.169915625 26.953 l-0.39063 0.46875 l0 0.078125 q0.13671875 0 0.46875 -0.546875 l-0.078125 0 z M52.529315625 34.4531 q1.3671875 -0.91796875 2.421875 -2.265625 l2.5781 -2.7344 q2.51953125 -2.71484375 2.890625 -2.734375 q0 -0.17578125 1.5625 -1.484375 q0.078125 -0.4296875 0.078125 -0.703125 l0 -0.23438 l-0.23438 0 l-0.15625 0.078125 l0 -0.078125 q-1.328125 0.3515625 -1.328125 0.78125 q-0.44921875 0 -2.1875 1.5625 q-2.578125 2.4609375 -3.984375 4.375 q-1.640625 2.55859375 -1.640625 3.4375 z M53.154315625 28.047 l0 0.15625 q0.1171875 0 0.3125 -0.3125 l0 -0.078125 z M54.404315625 26.641 l0 -0.078125 q0.546875 -0.625 0.625 -0.625 l0 0.15625 l0.15625 -0.078125 l-0.078125 -0.15625 q0 -0.1171875 0.234375 -0.234375 l0 0.078125 l-0.078125 0.15625 l0.15625 0 q0 -0.13671875 0.859375 -0.9375 l-0.078125 0 q0.078125 -0.15625 0.078125 -0.234375 l0.078125 0 l0 0.15625 l0.078125 0 q0 -0.52734375 0.703125 -0.703125 l0.23438 -0.3125 l-0.078125 0 q0 0.1171875 -0.234375 0.234375 l-0.078125 0 l0.46875 -0.54688 q-0.078125 0 -0.078125 -0.078125 q0.234375 0 0.234375 -0.15625 l0.078125 0 l0.15625 0.078125 l0 -0.23438 l0.078125 0 l0 0.15625 l0.078125 0 l0 -0.23438 l0.078125 0 q0 0.078125 0.078125 0.234375 q0.15625 -0.078125 0.234375 -0.078125 l-0.078125 -0.15625 q0.859375 -0.33203125 0.859375 -0.46875 l0 -0.078125 q1.875 -0.1171875 1.875 -0.234375 l0.15625 0.078125 l0.46875 0 l0.15625 -0.078125 l0 0.078125 l0.15625 -0.078125 l0.46875 0 q0.95703125 0 2.1875 1.5625 l0.078125 0 l0.39063 -0.078125 l0 0.078125 l-0.078125 0.15625 l0.15625 0 q0.078125 0 0.078125 -0.078125 q0.703125 0.1171875 1.40625 1.171875 l0 0.23438 q-0.29296875 1.15234375 -2.890625 5.9375 q-2.265625 4.8046875 -2.265625 7.8125 l0 0.46875 q0 0.546875 0.234375 1.171875 q-0.078125 0.15625 -0.078125 0.234375 q0 0.13671875 0.15625 0.46875 q-0.1171875 0 -0.625 0.46875 l-0.078125 0 q-0.078125 0 -0.078125 -0.078125 l-0.15625 0.078125 q-0.25390625 -0.15625 -0.390625 -0.15625 q0 0.078125 -0.078125 0.078125 q-1.328125 -1.2109375 -1.640625 -2.734375 l0 -0.15625 l0.078125 -0.15625 l-0.078125 -0.46875 l0 -0.15625 l-0.15625 0 l0.078125 -0.15625 l0 -0.39063 q0 -1.8359375 0.46875 -2.96875 l-0.078125 -0.15625 q0.625 -2.109375 0.9375 -2.578125 l-0.078125 -0.15625 q0 -0.234375 0.390625 -1.015625 l-0.078125 0 q-1.15234375 1.0546875 -4.6875 5.078125 q-1.93359375 1.9921875 -2.734375 2.109375 q-1.5625 0 -2.34375 -1.5625 q-0.390625 -0.234375 -0.625 -1.875 l0 -0.078125 q0.29296875 -1.25 0.390625 -1.25 l0 -0.078125 l-0.078125 0 q0.72265625 -2.32421875 1.953125 -3.671875 l0 0.078125 l-0.15625 0.23438 l0.078125 0 l0.46875 -0.625 l-0.15625 0.078125 l-0.078125 0 l0 -0.078125 q0.46875 -0.7421875 0.859375 -1.015625 l0 -0.078125 q0.2734375 -0.44921875 1.25 -1.328125 z M50.029315625 32.2656 l0.23438 0 l0 0.15625 l-0.15625 -0.078125 l0 0.15625 l-0.078125 0 l0 -0.23438 z M50.732425625 31.1719 l0 0.078125 q-0.1171875 0.3125 -0.234375 0.3125 l0 -0.078125 q0.1171875 -0.3125 0.234375 -0.3125 z M50.888675625 30.8594 l0 0.23438 l-0.15625 0 l0 -0.078125 q0.01953125 -0.15625 0.15625 -0.15625 z M51.357421625 30.0781 l0 0.078125 q0 0.15625 -0.15625 0.15625 l0 -0.078125 q0.01953125 -0.15625 0.15625 -0.15625 z M51.748045625 29.531 l0 0.078125 q0 0.1171875 -0.234375 0.234375 l0 -0.078125 q0 -0.1171875 0.234375 -0.234375 z M52.294925625 29.141 l0 0.23438 l-0.15625 0 l0 -0.078125 q0.01953125 -0.15625 0.15625 -0.15625 z M52.138675625 28.984 l0 0.078125 q0 0.1171875 -0.234375 0.234375 l0 -0.078125 q0 -0.1171875 0.234375 -0.234375 z M52.529315625 28.436999999999998 l0 0.078125 q-0.09765625 0.3125 -0.390625 0.46875 l0 -0.078125 q0.29296875 -0.46875 0.390625 -0.46875 z M52.841815625 28.047 l0 0.078125 q-0.15625 0.1953125 -0.15625 0.3125 l-0.15625 0 q0.15625 -0.3515625 0.3125 -0.390625 z M54.482415625 26.25 l0 0.078125 q-1.171875 1.328125 -1.25 1.328125 l0 -0.078125 q1.03515625 -1.328125 1.25 -1.328125 z M55.732415625 25.234 l0.078125 0 q0 0.1171875 -0.234375 0.234375 l0 -0.078125 q0.01953125 -0.15625 0.15625 -0.15625 z M56.044915625 24.609 l0.078125 0 l0 0.15625 q-0.21484375 0 -1.09375 1.015625 l-0.3125 0.23438 l0 -0.078125 q1.2109375 -1.328125 1.328125 -1.328125 z M56.748015625 23.828 l0.078125 0 l0 0.23438 l-0.3125 0.23438 l0 -0.078125 q0.234375 -0.25390625 0.234375 -0.390625 z M82.89084375 22.129 l0.3125 0 q0.15625 0.17578125 1.25 0.625 q0 0.13671875 0.625 0.625 q0.625 0.5078125 0.625 0.859375 l0 0.39063 q0 1.1328125 -3.046875 5.390625 q-2.44140625 3.30078125 -5.546875 8.515625 q-0.703125 1.50390625 -0.703125 2.5 q0.01953125 0.1953125 0.390625 0.3125 q0.09765625 0 1.09375 -0.3125 q0 0.078125 0.078125 0.078125 l0.078125 -0.15625 l0.15625 0.078125 l2.2656 -1.0156 l0 -0.078125 l0.078125 0 q0.078125 0 0.078125 0.078125 l1.6406 -0.78125 q0.46875 -0.1171875 0.46875 -0.3125 l0.15625 0.078125 q0.546875 -0.44921875 1.875 -0.9375 q0 -0.09765625 0.078125 -0.234375 l0.15625 0.078125 q1.640625 -1.09375 1.796875 -1.09375 q0 -0.1171875 1.09375 -0.625 q0.01953125 -0.15625 0.15625 -0.15625 l0.078125 0 l0 0.15625 l0.078125 0 l0 -0.23438 l0.15625 0 l0 0.15625 l0.15625 -0.078125 l0 0.15625 q-0.1171875 0 -0.3125 0.3125 l0.078125 0.15625 l0 0.078125 q-0.234375 0 -0.390625 0.703125 q0.078125 0 0.078125 0.078125 q-0.29296875 0 -0.859375 0.9375 l-0.078125 0 l0.078125 0.15625 q-0.13671875 0.25390625 -1.484375 1.25 q0 0.078125 0.078125 0.078125 q-0.21484375 0.44921875 -1.640625 1.171875 q-0.33203125 0.3515625 -2.96875 1.71875 l0 -0.078125 q-0.8203125 0.56640625 -2.1875 0.9375 q-1.09375 0.09765625 -1.09375 0.234375 q-1.484375 -0.15625 -2.421875 -0.625 q-1.30859375 -1.03515625 -1.796875 -3.28125 q-0.15625 -0.76171875 -0.15625 -1.171875 q0.1171875 -0.703125 0.234375 -0.703125 l-0.078125 -0.15625 l0 -0.078125 q0.8984375 -2.34375 1.796875 -3.359375 q1.58203125 -2.7734375 2.96875 -4.609375 l2.2656 -3.5156 l0 -0.078125 l-0.078125 0 q-2.28515625 1.1328125 -5.390625 3.984375 q-2.7734375 2.75390625 -5.078125 5.625 q-1.62109375 1.875 -1.875 1.875 l-0.078125 0 l0 -0.078125 q-0.078125 0 -0.078125 0.078125 l-0.39063 -0.078125 l-0.078125 0 l-0.15625 0.078125 l0 -0.15625 l-0.15625 0 l-0.15625 0.078125 q-1.07421875 -0.9765625 -1.171875 -1.484375 l-0.078125 0 q0 -0.078125 0.078125 -0.078125 l-0.078125 -0.78125 q0 -0.87890625 0.78125 -2.96875 q0.29296875 -0.29296875 1.015625 -1.71875 q1.93359375 -3.26171875 2.65625 -4.296875 q0.9375 -1.34765625 0.9375 -1.640625 l0.15625 0 l0.15625 0.078125 q0.01953125 -0.15625 0.15625 -0.15625 q0.29296875 0.09765625 0.703125 0.390625 l0.23438 0 q1.09375 0.6640625 1.09375 1.953125 q0.390625 -0.234375 0.625 -0.234375 l-0.078125 -0.15625 q0.41015625 -0.078125 1.015625 -0.78125 q0.78125 -0.33203125 0.78125 -0.625 l0.15625 0.078125 q1.73828125 -1.34765625 4.6875 -2.65625 q1.1328125 -0.546875 1.953125 -0.546875 z M113.466453125 20.742 l0.23438 0 l0 0.15625 l-0.23438 0 l0 -0.15625 z M114.091453125 20.82 q1.875 0.41015625 1.875 0.703125 q0 0.078125 0.078125 0.078125 l0 -0.078125 q0.52734375 0 0.859375 1.484375 q-0.078125 0.234375 -0.15625 0.234375 l0.078125 0.15625 q-0.5078125 1.2109375 -3.515625 6.5625 q-0.05859375 0.17578125 -0.703125 1.171875 q0 0.078125 0.078125 0.078125 q-0.390625 0.72265625 -0.390625 0.859375 l-0.15625 -0.078125 l0.078125 0.15625 q-1.6796875 3.359375 -2.34375 5.15625 q-0.60546875 0.60546875 -1.25 3.28125 q-0.078125 0 -0.078125 0.078125 t0.078125 0.078125 q-0.46875 1.46484375 -0.46875 2.65625 l-0.078125 0 l0 -0.3125 l-0.078125 0 q-0.13671875 0.703125 -0.3125 0.703125 q0 -0.078125 -0.078125 -0.078125 q0 0.46875 -0.390625 0.46875 q0 -0.078125 -0.078125 -0.078125 q-0.05859375 0.234375 -0.3125 0.3125 q0 -0.15625 -0.234375 -0.15625 l-0.23438 0 q-0.234375 -0.546875 -0.625 -2.1875 q0.078125 -0.13671875 0.078125 -0.3125 l-0.15625 -0.078125 l0.078125 -0.15625 l0 -0.15625 l-0.15625 0 l0 -0.15625 q0 -0.33203125 -0.078125 -0.859375 l0.078125 -0.15625 q-0.078125 -0.13671875 -0.078125 -0.3125 l0.078125 -0.15625 l-0.078125 0 q0.15625 -0.234375 0.234375 -0.859375 q-0.078125 -0.13671875 -0.078125 -0.3125 l0.15625 0 l0 -0.078125 l-0.15625 -0.23438 l0.15625 -0.078125 q0 0.078125 0.078125 0.078125 l0.15625 -0.78125 q-0.078125 0 -0.078125 -0.078125 q0.17578125 0 0.234375 -0.3125 l-0.078125 -0.15625 l0 -0.3125 q0.234375 0 0.390625 -0.546875 q-0.078125 0 -0.078125 -0.078125 q0.1953125 -0.234375 0.3125 -0.234375 l-0.078125 -0.15625 q0.390625 -0.5078125 0.390625 -0.703125 l-0.15625 0.078125 l0 -0.078125 q0 -0.1953125 0.3125 -0.234375 l0 -0.15625 l-0.15625 0 l0 -0.078125 q0.1171875 -0.13671875 0.625 -0.9375 l-0.15625 0 q0.078125 -0.13671875 0.078125 -0.3125 l0.078125 0 l0 0.15625 l0.078125 0 q0 -0.546875 0.625 -1.40625 l0.078125 0 l-0.078125 -0.15625 q0.234375 0 0.234375 -0.546875 l0.15625 0.078125 l0.078125 -0.46875 q-0.078125 0 -0.078125 -0.078125 q0.3125 0 0.3125 -0.625 l0.15625 0.078125 l0 -0.15625 l-0.15625 0 l0 -0.15625 l0.15625 0.078125 q0 -0.1953125 0.390625 -0.703125 l0.15625 -0.3125 l-0.078125 0 l-0.078125 0.15625 l-0.15625 -0.078125 l-0.078125 0 q-0.29296875 0.13671875 -0.390625 0.46875 q0.078125 0 0.078125 0.078125 l-0.70313 0.85938 q-1.58203125 2.05078125 -3.984375 4.453125 q-0.13671875 0 -1.484375 1.171875 q-1.4453125 0.703125 -1.71875 0.703125 l-0.625 -0.3125 l-0.15625 0.078125 l-0.078125 0 q-1.640625 -1.30859375 -1.640625 -2.265625 q-0.3125 -0.546875 -0.3125 -0.78125 l0 -0.625 q0 -0.390625 0.234375 -1.25 q-0.17578125 0 -0.546875 0.546875 l-1.9531 2.0313 q-1.015625 1.07421875 -2.03125 2.421875 q-1.9140625 1.953125 -2.5 1.953125 q0 0.09765625 -0.46875 0.234375 q-1.50390625 -0.37109375 -1.875 -1.015625 q-0.78125 -1.19140625 -0.78125 -1.953125 q0 -1.25 2.109375 -6.5625 q0.46875 -0.99609375 0.625 -1.5625 q0.1171875 0 0.546875 -0.234375 l0 0.078125 l0.15625 -0.078125 q0.15625 0.01953125 0.15625 0.15625 l0.15625 -0.078125 l0.15625 0 q1.640625 0.33203125 1.640625 1.5625 l-0.46875 1.9531 q0.078125 0 0.078125 0.078125 q-0.15625 0.01953125 -0.15625 0.15625 l0.078125 0.15625 q-0.234375 0.078125 -0.234375 0.46875 l0 0.078125 l0.15625 -0.078125 q0 0.078125 0.078125 0.078125 q1.23046875 -1.40625 1.40625 -1.484375 l0 0.15625 q2.24609375 -1.9921875 2.8125 -2.734375 q1.328125 -1.0546875 4.0625 -3.671875 q0.546875 -0.3125 0.546875 -0.625 l0.15625 0.078125 l0.70313 0 l0.15625 0.078125 l0 -0.078125 q0.546875 0.13671875 0.546875 0.234375 l0.15625 -0.078125 l1.0156 0.46875 q0.33203125 0.29296875 0.625 1.09375 q0 0.9375 -1.484375 3.75 q-0.46875 1.171875 -0.625 1.171875 l0 0.15625 l0.078125 0 q0.078125 0 1.328125 -1.40625 q1.5625 -1.796875 2.34375 -2.578125 q0 0.078125 0.078125 0.078125 l0 -0.23438 l0.15625 0.078125 l0 -0.078125 q-0.078125 0 -0.078125 -0.078125 q0.21484375 0 0.703125 -0.625 q0 0.078125 0.078125 0.078125 l0.078125 -0.39063 l0.15625 0.078125 q0.390625 -0.390625 0.390625 -0.625 l0.15625 0.078125 l0.46875 -0.625 l0.15625 0.078125 l0 -0.078125 q-0.078125 0 -0.078125 -0.078125 l0.15625 -0.078125 q0 0.078125 0.078125 0.078125 q0.3515625 -0.56640625 0.703125 -0.703125 q0.3125 -0.234375 0.3125 -0.3125 q-0.078125 0 -0.078125 -0.078125 q0.5078125 -0.390625 0.78125 -0.390625 l-0.078125 -0.15625 l0 -0.078125 q0.0390625 0 0.3125 -0.078125 q0 0.078125 0.078125 0.078125 l0 -0.078125 q-0.078125 0 -0.078125 -0.078125 q0.546875 -0.15625 0.78125 -0.546875 q1.30859375 -0.9375 1.484375 -0.9375 z M132.67625 25.527 l0.15625 0 l0 0.15625 l0.078125 0 l0.54688 -0.078125 q0 0.15625 0.625 0.234375 l0 0.15625 l0.15625 -0.078125 l0.15625 0 l0.23438 0.3125 q0.52734375 0.15625 1.015625 0.9375 l0.078125 0.39063 q0 0.80078125 -0.234375 1.09375 q0 0.078125 0.078125 0.078125 q-1.875 4.5703125 -3.515625 9.765625 l-0.70313 2.6563 l-0.078125 0 l0 0.3125 q-0.234375 0.859375 -0.46875 0.859375 q0 0.8984375 -0.703125 1.015625 q-0.078125 0 -0.078125 0.15625 l-0.15625 -0.078125 q0 0.078125 -0.078125 0.078125 l0 -0.15625 l-0.078125 0 l0 0.15625 l-0.078125 0 q0 -0.234375 -0.546875 -0.390625 q-0.546875 -0.9765625 -0.546875 -1.953125 l0 -0.39063 q0 -2.94921875 1.09375 -6.40625 l0.15625 -0.078125 l-0.078125 -0.15625 q0.3125 -1.11328125 0.3125 -1.328125 l0 -0.078125 q-1.40625 1.69921875 -3.828125 3.984375 q-3.515625 3.046875 -5.546875 3.046875 q-1.7578125 0 -3.125 -1.71875 q-0.859375 -1.3671875 -0.859375 -3.125 q0 -1.30859375 1.796875 -4.375 q0 -0.078125 -0.078125 -0.078125 l0.39063 -0.70313 q0.15625 0.0390625 0.15625 0.15625 q0.234375 -0.078125 0.234375 -0.15625 q0.1171875 0 1.5625 0.3125 q0 -0.078125 0.078125 -0.078125 q1.015625 1.1328125 1.015625 1.484375 l0 0.3125 q0 0.15625 -1.71875 3.828125 q-0.3125 1.19140625 -0.3125 1.25 l0 0.15625 l0.15625 0 q1.328125 -0.60546875 2.96875 -2.03125 q0.29296875 0 1.796875 -1.640625 q1.875 -1.796875 3.59375 -3.90625 l1.7969 -1.7969 q0.15625 0 1.71875 -1.5625 q0.46875 -0.546875 0.859375 -0.546875 z M142.607396875 40.70313 q-1.69921875 -0.0390625 -1.93359375 -0.3125 l-0.039063 0.019531 q-0.46875 0 -1.11328125 -0.78125 q-0.01953125 -0.09765625 -0.15625 -0.09765625 l-0.039063 0 l0.058594 -0.11719 q-0.1953125 -0.25390625 -0.2734375 -0.25390625 l0.039063 -0.13672 l-0.019531 -0.11719 q-0.13671875 -0.1171875 -0.48828125 -0.78125 l-0.019531 0 q-0.05859375 0 -0.05859375 -0.05859375 l0.078125 0 l-0.35156 -0.54688 l0.15625 -0.078125 l-0.11719 -0.097656 l-0.039063 -0.29297 q0 -0.44921875 0.3515625 -0.8984375 q0 -0.390625 1.42578125 -1.5625 l1.0352 -0.42969 l-0.11719 0.25391 l0.078125 0 q0 -0.05859375 0.078125 -0.05859375 q0.0390625 0.2734375 0.234375 0.390625 q-0.17578125 0.01953125 -0.2734375 0.3125 q0.078125 0 0.078125 0.05859375 q-0.05859375 0 -0.05859375 0.0390625 l0 0.019531 l0.097656 0 q0.25390625 0 0.25390625 0.13671875 q-0.13671875 0.01953125 -0.29296875 0.68359375 l-0.15625 0.097656 l0.13672 0.29297 q0 0.1953125 -0.37109375 0.80078125 q0.17578125 0.3125 0.17578125 0.46875 q0 0.0390625 -0.078125 0.0390625 q0.15625 0.37109375 0.3125 0.37109375 l-0.019531 -0.039063 l0.19531 0.039063 q2.12890625 -1.34765625 2.59765625 -2.6171875 q1.328125 -2.36328125 1.328125 -4.5703125 q0 -0.64453125 -0.1171875 -1.26953125 q-0.09765625 -0.078125 -0.15625 -0.2734375 l0.097656 0 l-0.11719 -0.11719 q-0.05859375 -0.48828125 -0.2734375 -1.03515625 l0.039063 -0.29297 q-0.17578125 -0.7421875 -0.29296875 -0.7421875 l0.058594 -0.13672 l-0.058594 -0.33203 l0.019531 -0.37109 q0 -0.0390625 -0.05859375 -0.0390625 l-0.039063 0 l-0.039063 -0.91797 q0 -1.46484375 0.3515625 -2.2265625 q0.25390625 -0.859375 2.20703125 -2.5 q0 -0.234375 0.76171875 -0.44921875 l0.27344 -0.019531 q0.05859375 0 0.078125 0.05859375 q0.234375 -0.09765625 0.234375 -0.15625 q0.09765625 0.0390625 0.44921875 0.0390625 l0.39063 -0.019531 l0 -0.039063 q0.21484375 0.05859375 0.390625 0.05859375 q0.29296875 0 0.29296875 -0.078125 l0.25391 -0.019531 q0.8984375 0 2.1875 0.68359375 q0.390625 0.41015625 0.625 1.19140625 q-0.078125 0.99609375 -0.72265625 2.6953125 q-0.87890625 1.69921875 -1.93359375 2.109375 l0.019531 0.058594 q-0.09765625 0 -0.1171875 -0.05859375 q-0.390625 0.1171875 -1.23046875 0.21484375 l-0.42969 -0.019531 l0 0.019531 q0 0.0390625 -0.078125 0.0390625 q-0.01953125 -0.13671875 -0.8203125 -0.25390625 q0 -0.09765625 -0.2734375 -0.13671875 q0.0390625 0.21484375 0.13671875 0.21484375 q-0.09765625 0.05859375 -0.09765625 0.46875 q0 0.29296875 0.0390625 0.78125 l0.097656 0 l-0.058594 0.11719 q0.234375 1.328125 0.2734375 1.328125 l0.039063 0 l0 0.019531 q0 0.0390625 -0.05859375 0.0390625 l0.11719 0.29297 q0.3515625 1.796875 0.3515625 2.8125 q0 3.53515625 -2.55859375 6.40625 q-1.34765625 1.2109375 -2.55859375 1.46484375 q-0.390625 0.078125 -0.390625 0.21484375 z M147.353496875 26.055 l0.097656 -0.019531 l0 -0.019531 q0 -0.1171875 0.21484375 -0.234375 q0.09765625 -0.01953125 0.33203125 -0.52734375 q1.07421875 -1.26953125 1.171875 -2.08984375 q-1.42578125 1.11328125 -1.484375 1.77734375 l-0.37109 0.87891 z M138.837896875 36.2695 q0.1171875 -0.01953125 0.2734375 -0.33203125 l-0.078125 0 l-0.21484 0.27344 z M138.720696875 36.5234 q0.13671875 -0.01953125 0.13671875 -0.1171875 l-0.019531 -0.078125 q-0.15625 0.01953125 -0.15625 0.1171875 z M161.21091875 16.562 l0.078125 0 l0.625 0.3125 q0.13671875 -0.078125 0.3125 -0.078125 l0.625 0.39063 l0.15625 -0.078125 q0.7421875 1.07421875 0.78125 1.484375 q-0.1953125 0.625 -0.703125 0.625 q-0.41015625 -0.0390625 -1.25 -0.625 q-0.2734375 0 -0.625 -1.25 q-0.05859375 0 -0.234375 -0.234375 z M158.94531875 22.969 l0.078125 0 l0 0.15625 q0.078125 0 0.078125 -0.078125 q2.1875 0.60546875 2.1875 1.796875 q0.078125 0 0.078125 0.46875 q-3.02734375 4.82421875 -4.84375 8.59375 q0 0.17578125 -0.703125 1.5625 q-0.859375 2.91015625 -0.859375 2.96875 q0.3125 0.64453125 0.390625 1.171875 q-0.1171875 0 -0.234375 0.3125 l-0.15625 -0.078125 l-0.23438 0 l0 0.15625 q-1.015625 -0.29296875 -1.015625 -0.703125 q-0.078125 0 -0.078125 0.078125 q-1.09375 -0.83984375 -1.09375 -2.265625 q-0.13671875 0 -0.15625 -0.9375 q0 -2.109375 2.65625 -7.1875 q1.69921875 -3.2421875 3.359375 -5.3125 z M177.783390625 19.531 q0.078125 0 0.078125 0.078125 l0.15625 -0.078125 l0.078125 0 q0.21484375 0 0.46875 0.15625 q0.15625 -0.078125 0.234375 -0.078125 l0.078125 0.15625 l0.15625 -0.078125 q1.0546875 0.3125 1.40625 0.859375 q0.3125 0.60546875 0.3125 0.78125 q0 0.41015625 -1.015625 3.515625 l0 0.15625 q0.078125 0 0.078125 0.078125 q-0.2734375 0 -0.46875 2.109375 q0.078125 0 0.078125 0.078125 q-0.15625 0.078125 -0.234375 0.078125 q0 0.078125 0.078125 0.078125 q-0.234375 0.9375 -0.859375 0.9375 q-0.078125 0 -0.078125 0.078125 l-0.39063 -0.078125 l-0.39063 0 l0 -0.15625 l-0.15625 0.078125 q0 -0.15625 -0.15625 -0.15625 q0 0.078125 -0.078125 0.078125 q-0.234375 -0.33203125 -0.234375 -0.46875 l-0.078125 0 l-0.15625 0.078125 l0 -0.3125 q0.3125 0 0.3125 -1.875 q0.078125 0 0.15625 -0.546875 l-0.078125 0 q0.17578125 -0.21484375 0.390625 -1.953125 l-0.078125 0 q-2.32421875 1.40625 -4.6875 3.828125 q-0.68359375 0.60546875 -1.40625 1.5625 q-0.1171875 0 -2.34375 2.421875 q-2.51953125 3.41796875 -2.578125 3.90625 l0 0.23438 l-0.15625 -0.078125 q0 0.2734375 -0.390625 1.09375 q0.078125 0 0.078125 0.078125 q-0.078125 0 -0.078125 0.078125 q0.078125 0 0.078125 0.078125 l-0.15625 0.078125 q0 1.171875 0.859375 1.171875 q0.6640625 0.078125 1.09375 0.078125 l0.3125 0 q2.0703125 0 6.015625 -2.734375 q0 -0.234375 1.171875 -1.015625 l0.15625 0.078125 l0.15625 -0.078125 l0 0.15625 q0 0.078125 -0.078125 0.078125 l0.078125 0.15625 l-0.23438 0.39063 q0.078125 0 0.078125 0.078125 q-0.15625 0.01953125 -0.15625 0.15625 l0 0.23438 l0.15625 0 q0 0.1171875 -0.234375 0.234375 l0.078125 0.15625 l-0.23438 0.3125 q0 0.15625 0.234375 0.15625 l0 0.078125 q-0.546875 0.44921875 -1.171875 1.171875 l-0.15625 0 l0 0.078125 l0.078125 0 q0.15625 -0.078125 0.234375 -0.078125 l0 0.15625 q-0.2734375 0 -1.953125 1.40625 l-1.7969 0.85938 q-0.15625 0 -0.15625 0.15625 q-0.078125 0 -0.078125 -0.078125 q-0.56640625 0.234375 -1.5625 0.234375 l-0.23438 0 q-4.19921875 0 -5.078125 -4.140625 q-0.09765625 0 -0.15625 -0.703125 l0.078125 -0.15625 q-0.078125 -0.15625 -0.078125 -0.234375 q0.09765625 -0.546875 0.234375 -0.546875 q0 -0.078125 -0.078125 -0.078125 q0 -0.25390625 0.9375 -1.953125 l0.078125 0 q0 0.078125 0.078125 0.078125 l-0.078125 -0.15625 q0.4296875 -0.87890625 0.78125 -1.09375 l0 0.078125 q0.2734375 -0.05859375 0.46875 -0.46875 l-0.078125 0 l-0.15625 0.078125 l0 -0.15625 q2.01171875 -2.48046875 3.671875 -4.140625 q1.640625 -1.6015625 1.640625 -1.640625 q0.17578125 -0.05859375 2.34375 -2.03125 q3.02734375 -2.3828125 4.765625 -3.203125 z"></path></g><g id="SvgjsG2303" featureKey="sloganFeature-0" transform="matrix(0.9091303038149948,0,0,0.9091303038149948,89.29083503316288,68.98155835980066)" fill="url(#SvgjsLinearGradient2315)"><path d="M9.42 10.22 c0 0.78 -0.12 1.46 -0.4 1.96 c0.76 0.72 1.08 1.88 1.08 3.5 c0 1.72 -0.36 2.94 -1.18 3.58 c-0.78 0.62 -1.88 0.74 -2.98 0.74 l-3.9 0 c-0.1 0 -0.16 -0.08 -0.16 -0.18 l0 -12.84 c0 -0.1 0.06 -0.18 0.16 -0.18 l3.2 0 c1.08 0 2.2 0.08 2.96 0.58 c0.94 0.6 1.22 1.68 1.22 2.84 z M4.52 9.42 l0 1.8 l1.22 0 c0.64 0 0.98 -0.2 0.98 -0.9 s-0.52 -0.9 -1.4 -0.9 l-0.8 0 z M5.28 17.38 c1.1 0 2.14 -0.48 2.14 -1.76 c0 -0.96 -0.68 -1.72 -1.7 -1.72 l-1.2 0 l0 3.48 l0.76 0 z M3.04 8.06 l0 10.66 c0 0.1 0.08 0.14 0.16 0.14 l2.68 0 c1.94 0 3.1 -0.98 3.1 -3.08 c0 -1.5 -0.34 -3.06 -1.9 -3.5 c0.92 -0.3 1.16 -1.22 1.16 -2.2 c0 -1.6 -0.9 -2.18 -2.52 -2.18 l-2.52 0 c-0.12 0 -0.16 0.06 -0.16 0.16 z M5.58 18.62 l-2.28 0 l0 -6.16 l2.82 0 c2.06 0 2.58 1.34 2.58 3.32 c0 2.02 -1.1 2.92 -3.12 2.84 z M8 10.08 c0 1.62 -0.68 2.12 -2.32 2.12 l-2.38 0 l0 -4.04 l2.42 0 c1.18 0 2.28 0.22 2.28 1.92 z M19.532 20 c-0.1 0 -0.16 -0.08 -0.16 -0.18 l0 -12.84 c0 -0.1 0.06 -0.18 0.16 -0.18 l6.8 0 c0.1 0 0.18 0.08 0.18 0.18 l0 2.14 c0 0.1 -0.08 0.18 -0.18 0.18 l-4.32 0 l0 2.72 l3.36 0 c0.1 0 0.16 0.08 0.16 0.18 l0 2.18 c0 0.1 -0.06 0.18 -0.16 0.18 l-3.36 0 l0 2.94 l4.32 0 c0.1 0 0.18 0.08 0.18 0.18 l0 2.14 c0 0.1 -0.08 0.18 -0.18 0.18 l-6.8 0 z M20.532 8.06 l0 10.64 c0 0.12 0.08 0.16 0.16 0.16 l4.6 0 c0.18 0 0.14 -0.24 0 -0.24 l-4.5 0 l0 -5.22 l3.68 0 c0.12 0 0.12 -0.28 0 -0.28 l-3.68 0 l0 -4.96 l4.5 0 c0.14 0 0.18 -0.26 0 -0.26 l-4.6 0 c-0.08 0 -0.16 0.06 -0.16 0.16 z M51.85600000000001 6.92 c0.02 -0.06 0.06 -0.12 0.14 -0.12 l2.48 0 c0.08 0 0.12 0.06 0.14 0.12 l3.46 12.86 c0.02 0.12 -0.06 0.22 -0.18 0.22 l-2.28 0 c-0.06 0 -0.12 -0.04 -0.14 -0.12 l-0.78 -2.8 l-2.92 0 l-0.76 2.8 c-0.02 0.08 -0.06 0.12 -0.14 0.12 l-2.3 0 c-0.12 0 -0.2 -0.1 -0.18 -0.22 z M52.416000000000004 14.6 l1.66 0 l-0.86 -3.02 z M55.49600000000001 15.780000000000001 l0.92 3 c0.04 0.12 0.26 0.1 0.2 -0.06 l-3.2 -10.64 c-0.06 -0.26 -0.4 -0.28 -0.46 0 l-3.1 10.64 c-0.06 0.14 0.16 0.2 0.22 0.08 l0.88 -3.02 l4.54 0 z M51.016000000000005 15.52 l2.18 -7.36 l2.22 7.36 l-4.4 0 z M72.328 6.98 c0 -0.1 0.08 -0.18 0.18 -0.18 l2.3 0 c0.1 0 0.18 0.08 0.18 0.18 l0 12.84 c0 0.1 -0.08 0.18 -0.18 0.18 l-2.22 0 c-0.08 0 -0.16 -0.04 -0.18 -0.1 l-2.92 -6.58 l0 6.5 c0 0.1 -0.08 0.18 -0.18 0.18 l-2.28 0 c-0.1 0 -0.16 -0.08 -0.16 -0.18 l0 -12.84 c0 -0.1 0.06 -0.18 0.16 -0.18 l2.36 0 c0.08 0 0.12 0.06 0.14 0.1 l2.8 6.46 l0 -6.38 z M73.768 18.8 l0 -10.8 c0 -0.14 -0.26 -0.18 -0.26 0 l0 10.28 l-5.22 -10.32 c-0.06 -0.08 -0.22 -0.08 -0.22 0.04 l0 10.78 c0 0.18 0.24 0.18 0.24 0 l0 -10.26 l5.2 10.3 c0.08 0.14 0.26 0.1 0.26 -0.02 z M100.71199999999999 6.92 c0.02 -0.06 0.06 -0.12 0.14 -0.12 l2.48 0 c0.08 0 0.12 0.06 0.14 0.12 l3.46 12.86 c0.02 0.12 -0.06 0.22 -0.18 0.22 l-2.28 0 c-0.06 0 -0.12 -0.04 -0.14 -0.12 l-0.78 -2.8 l-2.92 0 l-0.76 2.8 c-0.02 0.08 -0.06 0.12 -0.14 0.12 l-2.3 0 c-0.12 0 -0.2 -0.1 -0.18 -0.22 z M101.27199999999999 14.6 l1.66 0 l-0.86 -3.02 z M104.35199999999999 15.780000000000001 l0.92 3 c0.04 0.12 0.26 0.1 0.2 -0.06 l-3.2 -10.64 c-0.06 -0.26 -0.4 -0.28 -0.46 0 l-3.1 10.64 c-0.06 0.14 0.16 0.2 0.22 0.08 l0.88 -3.02 l4.54 0 z M99.872 15.52 l2.18 -7.36 l2.22 7.36 l-4.4 0 z M123.22399999999999 14.780000000000001 c-0.28 0.58 -0.68 1.02 -1.24 1.28 l1.68 3.7 c0.06 0.12 -0.02 0.24 -0.14 0.24 l-2.46 0 c-0.08 0 -0.12 -0.04 -0.14 -0.1 l-1.56 -3.4 l-1.02 0 l0 3.32 c0 0.1 -0.08 0.18 -0.18 0.18 l-2.3 0 c-0.08 0 -0.14 -0.08 -0.14 -0.18 l0 -12.84 c0 -0.1 0.06 -0.18 0.14 -0.18 l4.16 0 c2.22 0 3.56 1.26 3.56 3.6 l0 2.52 c0 0.7 -0.12 1.36 -0.36 1.86 z M120.964 12.3 l0 -1.3 c0 -1.4 -0.52 -1.54 -2.04 -1.54 l-0.58 0 l0 4.42 l0.58 0 c1.26 0 2 -0.02 2.04 -1.58 z M117.184 18.78 l0 -3.42 l2.88 0 l1.68 3.46 c0.04 0.1 0.28 0.06 0.22 -0.12 l-1.68 -3.4 c1.56 -0.22 2.1 -1.04 2.1 -2.52 l0 -2.5 c0 -2.2 -2 -2.38 -2.62 -2.38 l-2.7 0 c-0.04 0 -0.12 0.06 -0.12 0.12 l0 10.76 c0 0.14 0.24 0.14 0.24 0 z M122.14399999999999 10.28 l0 2.5 c0 2.04 -1.3 2.32 -2.56 2.32 l-2.4 0 l0 -6.94 l2.58 0 c2.16 0 2.38 1.46 2.38 2.12 z M135.176 9.3 l-2.84 0 c-0.1 0 -0.18 -0.08 -0.18 -0.18 l0 -2.14 c0 -0.1 0.08 -0.18 0.18 -0.18 l8.34 0 c0.1 0 0.18 0.08 0.18 0.18 l0 2.14 c0 0.1 -0.08 0.18 -0.18 0.18 l-2.84 0 l0 10.52 c0 0.1 -0.08 0.18 -0.18 0.18 l-2.3 0 c-0.1 0 -0.18 -0.08 -0.18 -0.18 l0 -10.52 z M139.456 7.9 l-6.04 0 c-0.14 0 -0.14 0.26 0 0.26 l2.96 0 l0 10.6 c0 0.14 0.26 0.14 0.26 0 l0 -10.6 l2.82 0 c0.2 0 0.18 -0.26 0 -0.26 z M149.808 20 c-0.1 0 -0.16 -0.08 -0.16 -0.18 l0 -12.84 c0 -0.1 0.06 -0.18 0.16 -0.18 l2.28 0 c0.1 0 0.18 0.08 0.18 0.18 l0 12.84 c0 0.1 -0.08 0.18 -0.18 0.18 l-2.28 0 z M150.848 8 l0 10.78 c0 0.18 0.22 0.18 0.22 0 l0 -10.78 c0 -0.14 -0.22 -0.14 -0.22 0 z M166.44 11.9 c1.52 0.72 3.5 1.86 3.5 3.92 c0 0.6 -0.1 1.76 -0.76 2.74 c-0.74 1.1 -1.9 1.64 -3.5 1.64 c-1.7 0 -3.68 -0.82 -4.3 -2.68 c-0.02 -0.06 0 -0.12 0.06 -0.16 l1.84 -1.58 c0.08 -0.06 0.2 -0.06 0.26 0.04 c0.04 0.1 0.12 0.26 0.22 0.46 c0.3 0.62 1.02 1.24 1.82 1.24 c0.62 0 1.46 -0.34 1.46 -1.3 c0 -0.92 -1.26 -1.44 -2.04 -1.74 c-0.9 -0.36 -1.82 -0.82 -2.6 -1.5 c-0.82 -0.76 -1.22 -1.6 -1.22 -2.6 c0 -2.5 2.3 -3.76 4.48 -3.76 c1.72 0 3 0.9 3.84 2.68 c0.04 0.08 0 0.18 -0.06 0.22 l-1.78 1.24 c-0.08 0.04 -0.12 0.04 -0.2 -0.06 c-0.68 -0.98 -1.28 -1.44 -2.08 -1.44 c-0.42 0 -1.4 0.16 -1.4 0.9 c0 0.9 1.66 1.36 2.46 1.74 z M162.8 17.42 c0.5 1 1.88 1.58 3 1.58 c1.46 0 2.64 -1 2.8 -2.52 c0.2 -1.86 -1.26 -2.66 -2.7 -3.38 l-0.64 -0.28 c-1.48 -0.66 -2.56 -1.16 -2.56 -2.54 c0 -1.52 1.4 -2.22 2.78 -2.22 c1.26 0 1.92 0.74 2.26 1.2 c0.12 0.16 0.32 0.02 0.2 -0.14 c-0.34 -0.42 -1.06 -1.3 -2.46 -1.3 c-1.58 0 -3.02 0.78 -3.02 2.46 c0 1.5 1.2 2.08 2.72 2.78 l0.62 0.3 c1.98 0.94 2.7 1.82 2.54 3.1 c-0.3 2.04 -1.86 2.3 -2.54 2.3 c-1.5 0 -2.5 -0.9 -2.8 -1.46 c-0.1 -0.1 -0.24 0 -0.2 0.12 z M180.992 9.3 l-2.84 0 c-0.1 0 -0.18 -0.08 -0.18 -0.18 l0 -2.14 c0 -0.1 0.08 -0.18 0.18 -0.18 l8.34 0 c0.1 0 0.18 0.08 0.18 0.18 l0 2.14 c0 0.1 -0.08 0.18 -0.18 0.18 l-2.84 0 l0 10.52 c0 0.1 -0.08 0.18 -0.18 0.18 l-2.3 0 c-0.1 0 -0.18 -0.08 -0.18 -0.18 l0 -10.52 z M185.272 7.9 l-6.04 0 c-0.14 0 -0.14 0.26 0 0.26 l2.96 0 l0 10.6 c0 0.14 0.26 0.14 0.26 0 l0 -10.6 l2.82 0 c0.2 0 0.18 -0.26 0 -0.26 z"></path></g>
			</g>
		</svg>
	